<svg width="17" height="17" viewBox="0 0 17 17" fill="none" xmlns="http://www.w3.org/2000/svg">
<path d="M14.875 2.125V1.125H15.875V2.125H14.875ZM8.49877 9.91544C8.10825 10.306 7.47508 10.306 7.08456 9.91544C6.69404 9.52492 6.69404 8.89175 7.08456 8.50123L8.49877 9.91544ZM13.875 7.79167V2.125H15.875V7.79167H13.875ZM14.875 3.125H9.20833V1.125H14.875V3.125ZM15.5821 2.83211L8.49877 9.91544L7.08456 8.50123L14.1679 1.41789L15.5821 2.83211Z" fill="#28827D"/>
<path d="M14.1667 10.625V10.625C14.1667 11.1282 14.1667 11.3797 14.1366 11.5907C13.9481 12.9108 12.9108 13.9481 11.5907 14.1366C11.3798 14.1667 11.1282 14.1667 10.625 14.1667H8.50002C5.9943 14.1667 4.74144 14.1667 3.90499 13.4648C3.77121 13.3525 3.64748 13.2288 3.53522 13.095C2.83335 12.2586 2.83335 11.0057 2.83335 8.5V6.375C2.83335 5.87184 2.83335 5.62027 2.86347 5.40934C3.05194 4.08919 4.08921 3.05192 5.40935 2.86345C5.62028 2.83334 5.87186 2.83334 6.37502 2.83334V2.83334" stroke="#28827D" stroke-width="2" stroke-linecap="round"/>
</svg>
