<svg width="33" height="37" viewBox="0 0 33 37" fill="none" xmlns="http://www.w3.org/2000/svg">
<path fill-rule="evenodd" clip-rule="evenodd" d="M30.9363 5.82892L19.209 0.802913C17.511 0.0752177 15.589 0.0752172 13.891 0.802912L2.16368 5.82892C1.33639 6.18348 0.799999 6.99694 0.799999 7.897V19.716C0.799999 24.0759 2.90554 28.1673 6.45328 30.7014L13.9344 36.0451C15.4991 37.1627 17.6009 37.1627 19.1656 36.0451L26.6467 30.7014C30.1945 28.1673 32.3 24.0759 32.3 19.716V7.897C32.3 6.99694 31.7636 6.18348 30.9363 5.82892ZM24.0809 13.7886C24.4259 13.3573 24.356 12.728 23.9247 12.383C23.4934 12.038 22.8641 12.1079 22.5191 12.5392L14.2171 22.9167L10.5071 19.2068C10.1166 18.8162 9.48342 18.8162 9.0929 19.2068C8.70237 19.5973 8.70237 20.2305 9.0929 20.621L13.1979 24.726C13.83 25.3581 14.8714 25.3005 15.4298 24.6024L24.0809 13.7886Z" fill="#1E2332"/>
</svg>
