<svg width="22" height="20" viewBox="0 0 22 20" fill="none" xmlns="http://www.w3.org/2000/svg">
<path d="M12 16C12 16.5523 11.5523 17 11 17C10.4477 17 10 16.5523 10 16C10 15.4477 10.4477 15 11 15C11.5523 15 12 15.4477 12 16Z" fill="#3FBEB7"/>
<path fill-rule="evenodd" clip-rule="evenodd" d="M11 0C11.3632 0 11.6978 0.196892 11.8742 0.514357L21.8742 18.5144C22.0462 18.8241 22.0416 19.2017 21.8619 19.5071C21.6822 19.8125 21.3543 20 21 20H1C0.64568 20 0.317815 19.8125 0.138129 19.5071C-0.0415561 19.2017 -0.0462301 18.8241 0.125843 18.5144L10.1258 0.514357C10.3022 0.196892 10.6368 0 11 0ZM2.69951 18H19.3005L11 3.05913L2.69951 18ZM11 7C11.5523 7 12 7.44772 12 8V12C12 12.5523 11.5523 13 11 13C10.4477 13 10 12.5523 10 12V8C10 7.44772 10.4477 7 11 7Z" fill="#3FBEB7"/>
</svg>
