<svg width="40" height="37" viewBox="0 0 40 37" fill="none" xmlns="http://www.w3.org/2000/svg">
<g clip-path="url(#clip0_240_1108)">
<path d="M38.5714 21.1429L26.8 35.6786L18.9429 30.2343" stroke="#000001" stroke-linecap="round" stroke-linejoin="round"/>
<path d="M14.2857 13.2143C17.8362 13.2143 20.7143 10.552 20.7143 7.26786C20.7143 3.98373 17.8362 1.32143 14.2857 1.32143C10.7353 1.32143 7.85718 3.98373 7.85718 7.26786C7.85718 10.552 10.7353 13.2143 14.2857 13.2143Z" stroke="#000001" stroke-linecap="round" stroke-linejoin="round"/>
<path d="M8.57145 33.0357H1.42859V29.0714C1.43082 26.7208 2.18609 24.4234 3.59901 22.4696C5.01192 20.5157 7.0191 18.993 9.36704 18.0937C11.715 17.1945 14.2984 16.959 16.7909 17.417C19.2835 17.875 21.5734 19.006 23.3714 20.6671" stroke="#000001" stroke-linecap="round" stroke-linejoin="round"/>
</g>
<defs>
<clipPath id="clip0_240_1108">
<rect width="40" height="37" fill="white"/>
</clipPath>
</defs>
</svg>
