<svg width="37" height="39" viewBox="0 0 37 39" fill="none" xmlns="http://www.w3.org/2000/svg">
<path fill-rule="evenodd" clip-rule="evenodd" d="M0 10.6356V10.6387C8e-05 13.107 0.19087 16.1461 0.84181 19.3309H18.2188V0C17.4722 0 16.7257 0.15611 16.031 0.46832C14.1325 1.32152 11.3712 2.49948 9.30025 3.11937C7.74295 3.58567 5.79505 3.97007 4.11735 4.25257C1.91385 4.62367 0.1439 6.31327 0.0457697 8.54567C0.0178397 9.18097 2e-05 9.88157 0 10.6356Z" fill="#9BDCD9"/>
<path fill-rule="evenodd" clip-rule="evenodd" d="M18.2188 39.0042C17.7551 39.0042 17.2914 38.9295 16.8522 38.7802C6.52296 35.2669 2.38666 26.8888 0.841827 19.3308H18.2188V39.0042Z" fill="#3FBEB7" fill-opacity="0.9"/>
<path fill-rule="evenodd" clip-rule="evenodd" d="M35.5956 19.3309H18.2188V0C18.9653 0 19.7118 0.15611 20.4065 0.46832C22.305 1.32152 25.0662 2.49948 27.1372 3.11937C28.6945 3.58567 30.6424 3.97007 32.3201 4.25257C34.5236 4.62367 36.2936 6.31327 36.3918 8.54567C36.5111 11.2609 36.4457 15.1717 35.5956 19.3309Z" fill="#3FBEB7" fill-opacity="0.9"/>
<path fill-rule="evenodd" clip-rule="evenodd" d="M35.5956 19.3308C34.0508 26.8888 29.9145 35.2669 19.5854 38.7802C19.1462 38.9295 18.6824 39.0042 18.2188 39.0042V19.3308H35.5956Z" fill="#9BDCD9"/>
<path d="M34.5156 17.4621C35.6573 18.4793 35.6573 20.1823 34.5156 21.1995C31.5236 23.865 25.3496 28.4402 18.2188 28.4402C11.088 28.4402 4.91396 23.865 1.92196 21.1995C0.780245 20.1823 0.780245 18.4793 1.92196 17.4621C4.91396 14.7966 11.088 10.2214 18.2188 10.2214C25.3496 10.2214 31.5236 14.7966 34.5156 17.4621Z" fill="#9BDCD9"/>
<path d="M18.2188 25.1277C21.4203 25.1277 24.0156 22.5323 24.0156 19.3308C24.0156 16.1293 21.4203 13.5339 18.2188 13.5339C15.0172 13.5339 12.4219 16.1293 12.4219 19.3308C12.4219 22.5323 15.0172 25.1277 18.2188 25.1277Z" fill="#3FBEB7" fill-opacity="0.9"/>
</svg>
