<svg width="419" height="99" viewBox="0 0 419 99" fill="none" xmlns="http://www.w3.org/2000/svg">
<g opacity="0.4" clip-path="url(#clip0_319_223)">
<path fill-rule="evenodd" clip-rule="evenodd" d="M-80.4688 174.461C-80.4688 174.498 -80.4688 174.536 -80.4688 174.573C-80.4659 213.175 -77.4803 260.699 -67.3014 310.5H204.5V0.172363C203.758 0.172363 203.016 0.336121 202.329 0.663639C188.737 7.1372 114.342 42.1581 65.0019 56.9283C17.3222 71.2015 -53.7538 80.5718 -70.7494 82.6881C-72.9668 82.9642 -74.7003 84.4082 -75.0094 86.6212C-76.4563 96.9799 -80.4653 129.715 -80.4688 174.461Z" fill="#9BDCD9"/>
<path fill-rule="evenodd" clip-rule="evenodd" d="M476.301 310.5H204.5V0.172363C205.242 0.172363 205.984 0.336121 206.671 0.663637C220.263 7.1372 294.658 42.1581 343.998 56.9283C391.678 71.2015 462.754 80.5718 479.749 82.6881C481.967 82.9642 483.7 84.4082 484.009 86.6212C486.705 105.921 498.295 202.897 476.301 310.5Z" fill="#3FBEB7"/>
</g>
<defs>
<clipPath id="clip0_319_223">
<rect width="419" height="99" fill="white"/>
</clipPath>
</defs>
</svg>
