<svg width="17" height="17" viewBox="0 0 17 17" fill="none" xmlns="http://www.w3.org/2000/svg">
<path d="M2.83331 9.775C2.83331 8.46563 2.83331 7.81094 3.12803 7.33C3.29294 7.06089 3.5192 6.83463 3.78832 6.66972C4.26925 6.375 4.92394 6.375 6.23331 6.375H10.7666C12.076 6.375 12.7307 6.375 13.2116 6.66972C13.4808 6.83463 13.707 7.06089 13.8719 7.33C14.1666 7.81094 14.1666 8.46563 14.1666 9.775V9.775C14.1666 11.7391 14.1666 12.7211 13.7246 13.4425C13.4772 13.8462 13.1378 14.1856 12.7341 14.4329C12.0127 14.875 11.0307 14.875 9.06665 14.875H7.93331C5.96925 14.875 4.98723 14.875 4.26582 14.4329C3.86215 14.1856 3.52276 13.8462 3.27539 13.4425C2.83331 12.7211 2.83331 11.7391 2.83331 9.775V9.775Z" stroke="#28827D" stroke-width="2"/>
<path d="M11.3333 5.66667V4.95833C11.3333 3.39353 10.0648 2.125 8.49996 2.125V2.125C6.93515 2.125 5.66663 3.39353 5.66663 4.95833V5.66667" stroke="#28827D" stroke-width="2" stroke-linecap="round"/>
<circle cx="8.49998" cy="10.625" r="1.41667" fill="#28827D"/>
</svg>
