<svg width="37" height="37" viewBox="0 0 37 37" fill="none" xmlns="http://www.w3.org/2000/svg">
<g clip-path="url(#clip0_240_1098)">
<path d="M19.4514 35.4936C18.8391 35.7298 18.1608 35.7298 17.5486 35.4936V35.4936C12.7668 33.6186 8.66097 30.3464 5.76639 26.1035C2.87181 21.8606 1.32283 16.844 1.32141 11.7078V3.96427C1.32141 3.26334 1.59985 2.59112 2.09549 2.09549C2.59112 1.59985 3.26334 1.32141 3.96427 1.32141H33.0357C33.7366 1.32141 34.4088 1.59985 34.9045 2.09549C35.4001 2.59112 35.6786 3.26334 35.6786 3.96427V11.6814C35.6825 16.8221 34.1359 21.8445 31.241 26.0926C28.3461 30.3407 24.2373 33.617 19.4514 35.4936V35.4936Z" stroke="#000001" stroke-linecap="round" stroke-linejoin="round"/>
<path d="M22.4643 14.5356H14.5357C13.0761 14.5356 11.8928 15.7189 11.8928 17.1785V22.4642C11.8928 23.9238 13.0761 25.1071 14.5357 25.1071H22.4643C23.9239 25.1071 25.1071 23.9238 25.1071 22.4642V17.1785C25.1071 15.7189 23.9239 14.5356 22.4643 14.5356Z" stroke="#000001" stroke-linecap="round" stroke-linejoin="round"/>
<path d="M22.4642 14.5357V11.8929C22.4642 11.3723 22.3617 10.8568 22.1625 10.3758C21.9632 9.89484 21.6712 9.45782 21.3031 9.0897C20.935 8.72158 20.498 8.42958 20.017 8.23035C19.536 8.03113 19.0205 7.92859 18.4999 7.92859C17.9793 7.92859 17.4638 8.03113 16.9829 8.23035C16.5019 8.42958 16.0649 8.72158 15.6968 9.0897C15.3286 9.45782 15.0366 9.89484 14.8374 10.3758C14.6382 10.8568 14.5356 11.3723 14.5356 11.8929V14.5357" stroke="#000001" stroke-linecap="round" stroke-linejoin="round"/>
</g>
<defs>
<clipPath id="clip0_240_1098">
<rect width="37" height="37" fill="white"/>
</clipPath>
</defs>
</svg>
